<svg xmlns="http://www.w3.org/2000/svg" viewBox="0 0 512 512"><path d="M0 0h512v512H0z"/>
    <!-- Hammer head (main striking surface) -->
    <path fill="#fff" data-channel="head" d="M215.97 27.813C213.752 27.853 211.62 27.99 209.563 28.188L209.031 28.25C206.257 28.516 203.235 29.26 199.907 30.094 195.489 31.204 191.811 32.701 188.782 34.5L266.564 93.813 273.939 99.469 268.346 106.874 254.626 125.03 322.221 176.656 336.438 157.844 345.908 145.314 352.408 159.656 372.064 203.126 432.657 123.031 385.47 115.907 369.937 113.595 379.407 101.032 393.687 82.189 326.094 30.565 310.78 50.78 305.75 57.437 298.562 53.187C269.927 36.27 240.542 28.03 218.219 27.813A76.706 76.706 0 0 0 215.969 27.813Z"/>
    <!-- Hammer head edge/detail -->
    <path fill="#fff" data-channel="edge" d="M453 127.124L381.53 221.562 416.094 247.749C460.334 227.529 480.104 195.155 487.406 153.124L453 127.124Z"/>
    <!-- Handle upper section -->
    <path fill="#fff" data-channel="handle" d="M259.312 152.154C232.142 185.244 204.004 216.86 176.5 248.374L223.906 288.249C247.016 252.906 270.242 216.639 295.844 180.029L259.314 152.155Z"/>
    <!-- Handle middle-upper section -->
    <path fill="#fff" data-channel="handle" d="M164.25 262.47C152.895 275.585 141.686 288.724 130.75 301.97L179.125 354.687C190.832 338.087 202.232 321.172 213.563 304L164.25 262.47Z"/>
    <!-- Handle middle section -->
    <path fill="#fff" data-channel="handle" d="M118.812 316.594A1111.646 1111.646 0 0 0 95.719 346.314L129.187 420.156C142.773 403.936 155.621 387.263 168.03 370.219L118.812 316.593Z"/>
    <!-- Handle middle-lower section -->
    <path fill="#fff" data-channel="handle" d="M83.062 363.624C70.954 380.602 59.492 397.959 48.938 415.906L98.53 454.47A688.442 688.442 0 0 0 115.75 435.75L83.062 363.625Z"/>
    <!-- Handle grip (bottom) -->
    <path fill="#fff" data-channel="handle" d="M39.625 432.312A546.43 546.43 0 0 0 24.875 461.312L62.25 489.625A611.184 611.184 0 0 0 85.375 467.905L39.625 432.313Z"/></svg>