<svg xmlns="http://www.w3.org/2000/svg" viewBox="0 0 512 512"><path d="M0 0h512v512H0z"/>
    <!-- Ladle/spoon handle -->
    <path fill="#fff" data-channel="handle" d="M452.7 45.03C451.5 45.03 450.4 45.13 449.1 45.3 439.3 46.7 423.1 54.9 406.2 71.2 335.1 140 292.5 188.8 273.8 211.5 294.2 213.7 311.7 216.6 324.8 220.1 330.1 208.3 338.2 196.3 348.3 183.8 372.9 153.3 409.2 120.8 446.7 85.3 458.6 73.9 463.9 65 465.1 59.4 466 55 464.9 51.6 463 49.3 461 46.78 457.5 45.05 452.7 45.03Z"/>
    <!-- Ladle bowl/detail -->
    <path fill="#fff" data-channel="detail" d="M444.7 53.63C446.7 53.53 448.4 54.1 449.3 55.3 451.9 58.6 448.6 65.4 442 70.6 435.4 75.7 428 77.3 425.4 74 422.9 70.8 426.2 63.9 432.8 58.8 436.9 55.55 441.4 53.74 444.7 53.63Z"/>
    <!-- Pot body (main vessel) -->
    <path fill="#fff" data-channel="body" d="M197.3 222.2C140.7 222.2 91.46 227.9 67.04 236 59.83 238.3 54.58 241.1 51.47 243.8 48.03 246.8 46.62 250.1 46.62 253.3S48.03 259.8 51.47 262.8C51.9 263.2 52.36 263.5 52.87 263.9V422.1C52.87 437.1 63.22 450.1 77.82 453.1 157.6 471.1 237.3 472.1 317 453.1 331.5 450.1 341.8 437.1 341.8 422.1V282.3C295.3 297.7 224.5 296.1 214.5 284.2 263.8 283.2 305.7 277.9 327.6 270.6 334.8 268.2 340.1 265.5 343.2 262.8 346.6 259.8 348 256.5 348 253.3S346.6 246.8 343.2 243.8C340.1 241.1 334.8 238.3 327.6 236 303.2 227.9 254 222.2 197.3 222.2Z"/>
    <!-- Pot rim/opening (interior edge) -->
    <path fill="#fff" data-channel="rim" d="M197.3 234.7C252.3 234.7 300 240 323.7 247.8 328.1 249.3 331.7 250.8 334 252.5 334.3 252.7 334.7 253 335 253.3 334.7 253.6 334.3 253.9 334 254.1 331.7 255.8 328.1 257.3 323.7 258.8 300 266.6 252.3 271.8 197.3 271.8 142.4 271.8 94.65 266.6 70.97 258.8 66.52 257.3 63.01 255.8 60.64 254.1 60.32 253.9 59.95 253.6 59.65 253.3 59.95 253 60.32 252.7 60.64 252.5 63.01 250.8 66.52 249.3 70.97 247.8 94.65 240 142.4 234.7 197.3 234.7Z"/></svg>