<svg xmlns="http://www.w3.org/2000/svg" viewBox="0 0 512 512">
    <path d="M0 0h512v512H0z" />
    <!-- Rod body (main pole shaft) -->
    <path fill="#fff" data-channel="rod"
        d="M459.36 43.126C407.085 51.838 346.584 89.792 287.56 140.032 235.37 184.456 184.764 238.756 144.722 292.337L163.394 307.457C176.622 289.723 191.124 271.845 206.472 254.261L198.632 246.047 211.652 233.617C216.614 239.097 221.882 244.241 227.24 249.597 215.723 288.369 188.04 329.337 154.558 362.125 159.373 365.895 163.843 371.141 166.376 375.851 202.4 341.005 232.074 297.357 244.708 253.764 288.552 236.858 311.488 204.824 334.345 162.889 393.827 154.194 436.899 122.201 461.325 92.904 466.453 106.694 471.487 120.5 474.295 134.002 478.162 152.585 478.053 170.086 469.308 187.322 453.482 218.509 423.558 233.334 400.258 248.956 388.608 256.766 377.971 264.95 373.671 277.696 369.371 290.442 373.335 305.278 385.305 321.986 398.068 339.799 416.731 352.749 429.33 365.546 432.692 368.961 435.572 372.316 437.888 375.61A32.642 32.642 0 0 1 459.79 378.854C459.66 378.481 459.535 378.106 459.396 377.737 455.763 368.131 449.326 360.203 442.156 352.919 427.813 338.351 410.096 325.683 399.936 311.501 389.654 297.148 388.741 289.337 390.728 283.447 392.715 277.557 399.528 271.113 410.281 263.904 431.785 249.486 466.469 232.694 485.361 195.464 496.354 173.797 496.281 151.298 491.921 130.336 484.771 97.618 472.337 70.906 459.361 43.126Z" />
    <!-- Rod tip section (upper detail) -->
    <path data-channel="empty"
        d="M446.562 56.298L454.228 72.758C434.662 100.11 392.92 135.76 333.108 144.96L328.925 137.362C366.49 108.31 403.745 85.892 435.859 74.265L430.963 63.195Z" />
    <!-- Rod mid section (middle detail) -->
    <path data-channel="empty"
        d="M308.192 138.96C311.709 144.154 315.268 149.855 318.138 155.093 296.343 195.075 277.462 221.553 239.601 236.503L230.661 227.563C253.041 203.768 278.701 178.998 302.645 158.448L297.075 150.725Z" />
    <!-- Line guide/eyelet (metal ring) -->
    <path fill="#fff" data-channel="guide"
        d="M132.14 305.31L123.33 316.19 146.646 335.07 155.454 324.188Z" />
    <!-- Reel housing (main reel body) -->
    <path fill="#fff" data-channel="reel"
        d="M112 330.18L17.338 447.088C17.371 447.395 17.518 448.222 18.166 449.492 19.561 452.226 22.863 456.157 26.748 459.304 30.634 462.45 35.168 464.864 38.131 465.659 39.509 466.029 40.347 465.999 40.655 465.966L90.375 404.563C87.56 392.611 90.065 379.521 98.34 369.303 106.613 359.085 118.896 353.908 131.173 354.176L135.316 349.061Z" />
    <!-- Reel handle (crank handle) -->
    <path fill="#fff" data-channel="handle"
        d="M129.99 372.046C123.382 372.1 116.864 375.026 112.33 380.626 104.27 390.581 105.775 404.916 115.73 412.976 125.685 421.036 140.02 419.528 148.08 409.573 148.55 408.993 148.984 408.395 149.39 407.786L166.927 411.016 159.865 449.37 177.565 452.63 187.89 396.573 152.7 390.093C151.61 385.216 148.91 380.653 144.677 377.225 140.322 373.699 135.129 372.003 129.99 372.045Z" />
    <!-- Bobber/float (fishing line float) -->
    <path fill="#fff" data-channel="bobber"
        d="M444.333 392.964C435.943 392.964 429.333 399.574 429.333 407.964 429.333 413.124 431.84 417.606 435.718 420.296 435.233 424.738 434.375 430.198 432.786 435.346 429.333 445.409 424.591 452.506 415.294 450.532 408.258 447.834 407.53 440.55 407.924 434.356L420.56 434.143 393.866 393.323C391.966 400.183 388.376 427.825 390.251 443.331 390.876 447.905 392.267 453.055 395.606 457.797 398.944 462.539 404.49 466.565 411.373 468.101 421.801 470.429 431.673 467.301 438.003 461.451 444.333 455.601 447.726 447.977 449.987 440.656 452.384 432.892 453.445 425.173 453.927 419.568 457.247 416.835 459.334 412.681 459.334 407.965 459.334 399.575 452.724 392.965 444.334 392.965Z" />
</svg>