<svg xmlns="http://www.w3.org/2000/svg" viewBox="0 0 512 512"><path d="M0 0h512v512H0z"/>
    <!-- Upper left leaf - Primary foliage -->
    <path data-channel="primary" fill="#fff" d="M161.563 19.28C171.656 30.014 178.306 42.958 182.125 56.937 188.327 79.644 187.931 105.085 185.845 131.031 181.669 182.925 171.265 237.543 183.405 271.438 194.801 303.252 213.073 322.148 233.345 331.438 242.065 335.436 251.245 337.648 260.531 338.22 282.726 273.136 277.991 190.076 241.471 133.937 289.823 182.171 312.661 255.005 297.907 331.344L289.127 334.874A89.825 89.825 0 0 0 297.22 332.031C339.003 315.161 373.195 265.778 358.97 193.376 352.434 160.111 330.004 113.211 292.47 76.876 259.998 45.444 216.643 21.664 161.562 19.282Z"/>
    <!-- Upper right leaf - Secondary foliage -->
    <path data-channel="secondary" fill="#fff" d="M445.53 202.813C444.69 214.913 440.892 226.341 434.97 236.72 424.617 254.86 408.522 270.477 391.094 285.313 356.238 314.983 316.037 342.469 302.781 370.531 290.226 397.114 289.897 419.783 296.595 437.814A65.853 65.853 0 0 0 309.22 458.782C362.928 431.995 410.95 377.872 423.03 320.752 423.106 380.398 392.4 439.439 336.406 477.658 372.208 492.203 422.688 482.692 458.126 429.908 474.544 405.452 489.684 362.608 488.938 317.033 488.304 278.345 476.674 237.803 445.531 202.816Z"/>
    <!-- Lower left leaf - Accent foliage -->
    <path data-channel="detail" fill="#fff" d="M20.656 276.283C11.173 322.161 21.364 363.115 40.156 396.939 62.292 436.779 96.838 466.315 123.281 479.282 180.351 507.27 228.795 490.25 252.531 459.752 184.941 454.652 128.839 418.879 99.095 367.189 138.115 410.617 206.753 433.479 266.657 429.814A65.827 65.827 0 0 0 267.127 405.346C263.913 386.381 252.257 366.899 228.095 350.158 202.59 332.488 154.05 328.798 109.032 320.533 86.524 316.403 64.785 310.943 46.752 300.409 36.429 294.379 27.438 286.349 20.658 276.284Z"/></svg>