<svg xmlns="http://www.w3.org/2000/svg" viewBox="0 0 512 512"><path d="M0 0h512v512H0z"/>
    <!-- Central crest ridge - Primary metal -->
    <path fill="#fff" data-channel="primary" d="M233 25V183H279V25H233Z"/>
    <!-- Left side panel - Primary metal -->
    <path fill="#fff" data-channel="primary" d="M215 46.74C189.9 54.27 170.1 68.79 155 87.62 134.3 113.5 123 147.9 121.3 183H215V46.74Z"/>
    <!-- Right side panel - Primary metal -->
    <path fill="#fff" data-channel="primary" d="M297 46.74V183H390.7C389 147.9 377.7 113.5 357 87.62 341.9 68.79 322.1 54.27 297 46.74Z"/>
    <!-- Brow band reinforcement - Edge highlights -->
    <path fill="#fff" data-channel="edge" d="M105 201V231H407V201H105Z"/>
    <!-- Left cheek guard - Secondary metal -->
    <path fill="#fff" data-channel="secondary" d="M121.8 249C125.8 272.2 145 290.6 170.2 304.1 188.8 313.9 210.2 320.7 229 324.2V308.9C215.3 305.2 200.6 299.2 186.8 291.9 175 285.6 164 278.3 155.7 269.8 149.6 263.7 144.7 256.7 142.4 249H121.8Z"/>
    <!-- Face opening reinforcement - Detail accents -->
    <path fill="#fff" data-channel="detail" d="M247 249V327H265V249H247Z"/>
    <!-- Right cheek guard - Secondary metal -->
    <path fill="#fff" data-channel="secondary" d="M369.6 249C367.3 256.7 362.4 263.7 356.3 269.8 348 278.3 337 285.6 325.2 291.9 311.4 299.2 296.7 305.2 283 308.9V324.2C301.8 320.7 323.2 313.9 341.8 304.1 367 290.6 386.2 272.2 390.2 249H369.6Z"/>
    <!-- Left neck guard - Secondary metal -->
    <path fill="#fff" data-channel="secondary" d="M116.8 282.3C111.1 336.5 100.1 388.2 89.17 432.4 89.36 432.6 90.99 437.7 95.23 443.4 99.74 449.5 106.4 456.6 113.9 463.2 125.6 473.4 139.8 482 151 485.4V313.6C137.5 305.1 125.4 294.7 116.8 282.3Z"/>
    <!-- Right neck guard - Secondary metal -->
    <path fill="#fff" data-channel="secondary" d="M395.2 282.3C386.6 294.7 374.5 305.1 361 313.6V485.4C372.2 482 386.4 473.4 398.1 463.2 405.6 456.6 412.3 449.5 416.8 443.4 421 437.7 422.6 432.6 422.8 432.4 411.8 388.2 400.9 336.5 395.2 282.3Z"/>
    <!-- Bottom trim and gorget - Detail accents -->
    <path fill="#fff" data-channel="detail" d="M256 379C235.7 379 215.4 380 197.9 382.1 187 383.4 177.2 384.9 169 387.2V406.1C176.1 403.7 187.2 401.5 200.1 399.9 216.6 398 236.3 397 256 397 275.7 397 295.4 398 311.9 399.9 324.8 401.5 335.9 403.7 343 406.1V387.2C334.8 384.9 325 383.4 314.1 382.1 296.6 380 276.3 379 256 379Z"/></svg>