<svg xmlns="http://www.w3.org/2000/svg" viewBox="0 0 512 512"><path d="M0 0h512v512H0z"/>
    <!-- Antennae and rostrum (top spines) -->
    <path fill="#fff" data-channel="antennae" d="M376.4 19.14C352 18.97 320.9 25.68 287.4 32.16 254 38.64 218.5 44.96 187.2 44.72 156 44.48 129.8 37.81 112.6 19.89L99.67 32.35C128 59.39 166 63.49 200.2 62.49 191.8 63.97 183 65.08 174.1 65.7 137.4 68.24 98.87 63.09 81.52 52.55L72.18 67.93C96.57 82.72 136.4 86.36 175.3 83.65 213.9 80.97 251 72.63 270 53.75 277.1 52.47 284.1 51.16 290.9 49.83 324.5 43.32 355.4 36.99 376.2 37.14 386.7 37.24 394.2 39.05 398.1 41.71 400.4 43.24 402 44.86 402.9 47.49H421.2C419.5 38.7 414.9 31.3 408.2 26.75 399.4 20.89 388.6 19.23 376.4 19.14Z"/>
    <!-- Head and upper body carapace -->
    <path fill="#fff" data-channel="shell" d="M428.1 65.24C383.2 65 294.1 73.7 218.7 94.44 219.8 94.33 220.9 94.27 222 94.27 240.1 94.27 255 109.2 255 127.3S240.1 160.3 222 160.3 189 145.4 189 127.3C189 114.3 196.7 103 207.7 97.59 179.8 105.9 154.3 115.9 134.3 127.8 186 155.1 211.7 190.8 234.2 225.1 307.6 204.7 354 182.3 409.1 129.2 385 135.1 373.8 135.7 352.9 134.9 381 124.4 449.9 91.67 471.6 79 442.2 81.28 397.1 91.38 370.7 97.44 385.6 84.01 422 69.02 435.1 65.36 432.9 65.26 430.6 65.26 428.1 65.24Z"/>
    <!-- Eye -->
    <path fill="#fff" data-channel="eye" d="M222 112.3C213.6 112.3 207 118.9 207 127.3S213.6 142.3 222 142.3 237 135.7 237 127.3 230.4 112.3 222 112.3Z"/>
    <!-- Upper body segment with legs -->
    <path fill="#fff" data-channel="legs" d="M101.5 132.5C83.92 159.3 70.08 184.8 60.06 208.7 85.16 242.9 117.2 271.9 175.6 289 185.6 271.5 200 253.4 218.6 234.4 193.3 195.5 166.8 158.9 101.5 132.5Z"/>
    <!-- Mid-body segment with legs -->
    <path fill="#fff" data-channel="legs" d="M52.57 228.5C40.54 263.9 37.39 295.9 43.2 324.6 75.55 348.1 102.3 362.7 158.7 350.5 157.7 336 160.6 320.9 167.4 305.2 112.5 288.5 78.11 260.3 52.57 228.5Z"/>
    <!-- Mid-body segment detail (right side) -->
    <path fill="#fff" data-channel="body" d="M231 247.2C226.5 251.8 222.3 256.3 218.4 260.8 250 278.5 273.1 299.5 296.2 331.6L310.8 321C287.4 288.6 262.8 265.8 231 247.2Z"/>
    <!-- Mid-body segment detail with swimmerets (right side) -->
    <path fill="#fff" data-channel="body" d="M202.7 280.1C198.9 285.3 195.5 290.4 192.6 295.4 201.2 299 214.3 306.1 226.4 314.4 241.4 324.8 255.3 337.8 260 347L276 338.6C268.3 324 252.8 310.9 236.7 299.7 224.8 291.4 212.9 284.6 202.7 280.1Z"/>
    <!-- Lower body segment with swimmerets (right side) -->
    <path fill="#fff" data-channel="body" d="M182.6 315.6C180.1 321.8 178.5 327.8 177.5 333.5 182.2 334.5 190.4 337.5 198.3 342.6 209 349.7 219.8 359.9 225.3 368.7L240.5 359.1C232.9 347.1 220.8 335.9 208.2 327.6 199.6 322 191.2 317.2 182.6 315.6Z"/>
    <!-- Tail transition segment (left side) -->
    <path fill="#fff" data-channel="tail" d="M52 352.1C67.4 386.6 98.57 416.7 147.2 441.6 158.8 440.6 168.1 439.5 175.9 435.7 182.8 432.3 189.2 426.7 195.8 414.8 178.9 401.1 167.4 385.6 162 368.1 112.8 378.5 80.44 369 52 352.1Z"/>
    <!-- Tail segment detail (right side, upper) -->
    <path fill="#fff" data-channel="tail" d="M422.1 424.7C411.7 424.6 379 428.9 346.3 435.7 322.8 440.7 298.7 447.2 281.4 453.7 293.1 450.6 307.2 449.4 322.7 449 328.8 448.8 335.2 448.8 341.6 448.9 360.8 449.3 380.8 451.1 398.6 453.7 410.9 455.6 422 457.6 431.5 460.2 438.4 451.9 443.9 442 444.4 436.1 444.9 425.2 427.7 424.8 422.1 424.7Z"/>
    <!-- Tail segment (left side, lower) -->
    <path fill="#fff" data-channel="tail" d="M210.4 425.4C200.7 439.6 191.3 450.1 176.3 454.9 197.5 463.7 221.2 471.7 247.7 478.9 256 471.6 263.7 461.7 262 451.2 242.2 443.4 224.9 434.9 210.4 425.4Z"/>
    <!-- Tail fan (telson and uropods - bottom) -->
    <path fill="#fff" data-channel="tailfan" d="M273.7 476.3L264.5 484.6C277.8 488.6 299.3 493.6 323.7 492.8 360 491.5 408 495 438.5 482.3 389.7 470 312.1 454.7 273.7 476.3Z"/></svg>