<svg xmlns="http://www.w3.org/2000/svg" viewBox="0 0 512 512">
    <path d="M0 0h512v512H0z" />
    <!-- Top-right stem -->
    <path fill="#fff" data-channel="stem"
        d="M398.97 17.5C346.105 18.334 265.66 69.43 301.844 173.938 313.931 171.578 326.412 172.18 338.156 175.594 303.386 72.872 379.716 36.877 419.656 45.188 460.356 53.658 477.834 105.865 457 125.968 437.964 144.338 411.705 150.735 395.156 133.718 369.233 107.065 395.109 70.44 433.126 74.75 387.96 50.892 349.699 101.177 373.906 136.156 398.891 172.259 456.566 176.618 482.969 131.156 514.27 77.258 461.215 18.47 401.56 17.5A80.047 80.047 0 0 0 398.967 17.5Z" />
    <!-- Top-center stem -->
    <path fill="#fff" data-channel="stem"
        d="M228.156 19.188C241.783 57.836 223.866 72.19 208.436 91.312 199.37 63.419 175.596 49.485 152.906 49.719 128.336 49.971 105.052 66.807 103.156 100.499 127.812 50.362 191.84 60.614 191 130.625H191.03C190.634 134.951 190.59 139.64 191 144.75A75.279 75.279 0 0 1 214.563 137.187C218.493 136.613 222.413 136.335 226.281 136.375A75.1 75.1 0 0 1 235.501 137.063C242.907 98.845 296.561 81.93 272.689 19.188H228.157Z" />
    <!-- Left stem -->
    <path fill="#fff" data-channel="stem"
        d="M87.47 21C-3.384 49.15 3.057 151.056 67.5 194.53 32.184 214.372 14.417 269.18 51.25 315.656 34.17 264.219 58.82 218.63 97.063 217.75 111.657 204.314 131.105 196.922 151.125 197.437A77.24 77.24 0 0 1 157.281 179.407C49.75 184.102 4.483 81.236 87.47 21Z" />
    <!-- Flower petal (main structure) -->
    <path fill="#fff" data-channel="petal"
        d="M223.906 155.094C221.7 155.146 219.464 155.334 217.25 155.656 190.095 159.646 170.55 182.002 168.344 208.219L167.5 218.124 157.656 216.654C131.683 212.77 105.419 226.952 95.281 252.499 85.144 278.045 94.523 306.363 116.095 321.343L124.25 327 118.125 334.78C101.98 355.395 100.958 384.647 117.905 406.063 134.847 427.468 163.945 433.47 187.687 422.375L196.719 418.155 200.343 427.469C209.895 451.955 235.569 467.599 262.843 463.593 289.863 459.623 309.18 437.603 311.563 411.53L312.468 401.688 322.248 403.125C348.221 407.011 374.485 392.861 384.623 367.312 394.761 341.764 385.351 313.452 363.779 298.469L355.593 292.779 361.78 284.969C378.15 264.372 379.22 234.709 362.188 213.186 345.143 191.649 315.663 185.378 291.938 196.624L282.938 200.904 279.25 191.654C273.763 177.886 263.703 167.061 250.906 160.904A58.863 58.863 0 0 0 226.094 155.094C225.364 155.084 224.642 155.074 223.906 155.094Z" />
    <!-- Right stem -->
    <path fill="#fff" data-channel="stem"
        d="M424.062 199.594C482.792 226.05 482.38 298.701 412.812 312.656A87.93 87.93 0 0 0 400 313.469 76.74 76.74 0 0 1 407.313 343.936C463.436 347.039 487.883 408.306 450.063 460.843 510.823 421.565 498.36 351.803 453.563 324.28 512.381 295.717 501.951 203.51 424.063 199.594Z" />
    <!-- Center flower detail (outer layer) -->
    <path data-channel="empty"
        d="M234.47 208.03L240.375 248.28C244.855 248.304 249.385 248.804 253.875 249.844L258.969 237.064 276.343 243.938 271.249 256.781C275.159 259.086 278.709 261.793 281.937 264.814L313.874 239.532 325.468 254.189 293.5 279.5A62.35 62.35 0 0 1 298.844 291.906L312.656 289.876 315.376 308.344 301.531 310.374A60.853 60.853 0 0 1 299.971 323.687L337.907 338.719 331 356.093 293.062 341.03A60.661 60.661 0 0 1 285.062 351.75L293.782 362.78 279.125 374.375 270.375 363.312A62.173 62.173 0 0 1 258.062 368.656L264 409.094 245.53 411.814 239.594 371.406A60.773 60.773 0 0 1 226.344 369.906L221.188 382.906 203.813 376 208.938 363.062A60.752 60.752 0 0 1 198.094 355L166.124 380.313 154.531 365.656 186.501 340.344A62.422 62.422 0 0 1 181.157 328.094L167.501 330.094 164.781 311.594 178.376 309.594C178.386 305.114 178.882 300.609 179.906 296.124L142.126 281.124 149 263.75 186.78 278.75A61.047 61.047 0 0 1 194.875 267.906L186.375 257.156 201.031 245.562 209.563 256.344A62.546 62.546 0 0 1 221.907 251L216 210.75 234.47 208.03Z" />
    <!-- Center flower core -->
    <path fill="#fff" data-channel="core"
        d="M238.97 266.906C222.244 267.251 206.65 277.401 200.063 294A42.779 42.779 0 0 0 224.125 349.72 42.781 42.781 0 0 0 279.845 325.656 42.778 42.778 0 0 0 255.781 269.936 43.074 43.074 0 0 0 238.971 266.906Z" />
    <!-- Bottom-left stem -->
    <path fill="#fff" data-channel="stem"
        d="M50.405 387.78C7.917 401.082 7.315 472.593 60.655 486.125 109.439 498.499 141.477 475.46 155.843 446.155 145.82 445.221 136.023 442.279 127.03 437.5 116.717 456.7 97.285 470.775 66.53 461.563 32.05 451.23 25.348 407.9 50.407 387.78Z" />
    <!-- Bottom-right stem -->
    <path fill="#fff" data-channel="stem"
        d="M391.249 392.938C383.043 403.462 372.299 411.501 360.279 416.5 381.125 434.397 388.654 459.88 378.843 494.47H415.749C426.963 454.24 414.939 417.484 391.249 392.937Z" />
</svg>