<svg xmlns="http://www.w3.org/2000/svg" viewBox="0 0 512 512"><path d="M0 0h512v512H0z"/>
    <!-- Cork ribbon decoration (top right) -->
    <path fill="#fff" data-channel="body" d="M381.7 27L367.2 47.4 416.7 82.5 431.2 62.2 381.7 27Z"/>
    <!-- Cork ribbon decoration (top left) -->
    <path fill="#fff" data-channel="body" d="M324.3 39.3L310.2 60 421.5 136.2 435.6 115.5 324.3 39.3Z"/>
    <!-- Bottle glass body (outer container) -->
    <path fill="#fff" data-channel="body" d="M317 92.7L247.1 175.5C236.8 173.4 226.2 172.3 215.3 172.3 128.5 172.3 58.05 242.8 58.05 329.6 58.05 416 128.5 487 215.3 487S372.6 416 372.6 329.6C372.6 291.8 359.2 257.1 337 230L388.4 143.1 317 92.7Z"/>
    <!-- Liquid (main potion contents) -->
    <path fill="#fff" data-channel="empty" d="M324.4 131.7L353.9 151.2 307.4 229.2C333.5 253.1 349.9 287.4 349.9 325.6 349.9 397.6 291.4 456 219.3 456 147.3 456 88.75 397.6 88.75 325.6 88.75 253.5 147.3 195 219.3 195 241.9 195 263.2 200.8 281.8 210.9L324.4 131.7Z"/>
    <!-- Liquid surface/meniscus effect -->
    <path fill="#fff" data-channel="primary" d="M292.9 312.2C245.6 311.5 166.7 370.5 114.6 325.7 114.7 383.4 161.6 430 219.3 430 275.4 430 321.3 386 323.9 330.5 316.9 317.3 306.1 312.4 292.9 312.2Z"/>
    <!-- Bubble (large) -->
    <path fill="#fff" data-channel="secondary" d="M281.4 335.5C286.5 335.4 291.1 337 294.1 340.5 301 348.4 297.3 362.9 285.8 372.9 274.4 382.9 259.5 384.6 252.6 376.7 245.7 368.8 249.4 354.3 260.8 344.3 267.3 338.7 274.8 335.7 281.4 335.5Z"/>
    <!-- Bubble (small) -->
    <path fill="#fff" data-channel="secondary" d="M224.9 384.6C226.1 384.6 227.3 384.7 228.6 384.9 238.5 386.4 245.8 393.1 244.8 400 243.8 407 235 411 225 410 215.1 408 207.8 402 208.8 394.7 209.7 388.7 216.5 384.6 224.9 384.6Z"/></svg>