<svg xmlns="http://www.w3.org/2000/svg" viewBox="0 0 512 512"><path d="M0 0h512v512H0z"/>
    <!-- Main crystal body (outer outline) -->
    <path fill="#fff" data-channel="body" d="M228.813 23L68.75 72.28 39.5 182.095 87.03 160.875 97.47 156.22 99.97 167.375 108.72 206.5 115.125 235.03 93.375 215.5 77.655 201.375 49.437 233.719 190.094 369.719 199.75 329.029 207.28 297.155 217.687 328.218 272.407 491.81 432.343 465.5 478.093 262.562 393.53 113.844 228.814 23Z"/>
    <!-- Left facet (dark shadow) -->
    <path fill="#fff" data-channel="facet_dark" d="M171.125 72.875L143.312 112.781 140.062 186.221 112.875 97.281 171.125 72.876Z"/>
    <!-- Center facet (highlight) -->
    <path fill="#fff" data-channel="facet_light" d="M188.969 166.281L302.093 321.531 407 355.407 299.625 354.563 188.969 226.563V166.283Z"/>
    <!-- Bottom facet (mid-tone) -->
    <path fill="#fff" data-channel="facet_mid" d="M79.312 330.25L219.437 483.375 213.874 417.5 79.311 330.25Z"/></svg>