<svg xmlns="http://www.w3.org/2000/svg" viewBox="0 0 512 512"><path d="M0 0h512v512H0z"/>
    <!-- Log body (main cylinder with bark texture) -->
    <path fill="#fff" data-channel="body" d="M391.69 15.94C375.322 16.013 360.69 21.01 349.715 31.984L73.83 307.87A71.537 71.537 0 0 1 95.6 308.638C109.44 311.268 122.217 317.615 133.584 326.352 160.751 302.242 275.469 206.642 275.469 206.642 234.924 253.379 187.214 296.534 154.933 347.402 155.526 348.136 156.128 348.862 156.708 349.607 172.538 369.962 183.378 394.877 186.631 419.17 187.586 426.305 187.866 433.447 187.371 440.4L368.431 259.34 360.689 254.693C360.209 254.908 359.727 255.123 359.196 255.34L313.942 277.967 359.196 232.713C359.196 232.803 359.216 232.893 359.222 232.983L359.294 232.863 402.814 258.977C404.086 253.079 406.608 247.564 410.638 242.927 415.3 237.557 421.848 233.849 429.638 232.187L403.514 188.645 418.949 179.383 429.989 197.783 472.751 155.021C493.787 133.986 499.147 113.694 496.021 94.631 494.391 84.689 490.198 74.948 484.108 65.884L411.232 138.759 474.754 54.062A113.096 113.096 0 0 0 463.002 43.032C454.076 35.764 443.9 29.662 433.307 25.096 433.489 25.273 433.677 25.446 433.857 25.623L377.29 59.565 398.958 16.228A88.367 88.367 0 0 0 394.984 15.995 80.937 80.937 0 0 0 391.687 15.945Z"/>
    <!-- Bark detail (knot or texture highlight) -->
    <path fill="#fff" data-channel="detail" d="M435.283 249.3C429.91 249.9 426.587 252.01 424.225 254.73 422.132 257.14 420.675 260.52 420.098 264.602 424.748 263.657 428.05 261.95 430.326 259.674 432.626 257.374 434.346 254.029 435.283 249.299Z"/>
    <!-- Log end (cut cross-section) -->
    <path fill="#fff" data-channel="end" d="M81.69 325.282C66.393 325.217 50.287 331.58 33.348 348.362 18.528 363.372 13.518 382.902 15.676 403.747 17.846 424.732 27.676 446.647 42.1 463.692 44.367 466.372 46.755 468.912 49.225 471.325 53.009 458.873 72.189 437.981 83.137 421.601 75.182 442.935 69.647 464.615 70.517 487.211 78.323 491.431 86.551 494.301 94.932 495.461 114.402 498.154 135.152 492.397 156.222 471.541 167.62 459.935 171.529 442.011 168.792 421.558 166.032 400.948 156.367 378.485 142.5 360.656 128.633 342.826 110.756 329.838 92.238 326.318A57.673 57.673 0 0 0 81.691 325.281Z"/>
    <!-- Tree rings (inner ring detail on cross-section) -->
    <path fill="#fff" data-channel="ring" d="M73.48 345.082A73.833 55.395 45 0 1 133.62 371.116 73.833 55.395 45 0 1 146.658 462.493 73.833 55.395 45 0 1 99.926 474.185 61.463 48 45 0 0 129.08 462.577 61.463 48 45 0 0 119.56 385.177 61.463 48 45 0 0 42.158 375.655 61.463 48 45 0 0 30.538 404.802 73.833 55.395 45 0 1 42.24 358.08 73.833 55.395 45 0 1 73.477 345.082Z"/></svg>